{
	"asset":{
		"generator":"Khronos glTF Blender I/O v5.1.19",
		"version":"2.0"
	},
	"scene":0,
	"scenes":[
		{
			"name":"Scene",
			"nodes":[
				0
			]
		}
	],
	"nodes":[
		{
			"mesh":0,
			"name":"fps-arms"
		}
	],
	"materials":[
		{
			"doubleSided":true,
			"name":"Mat_Suit",
			"pbrMetallicRoughness":{
				"baseColorFactor":[
					0.11999999731779099,
					0.11999999731779099,
					0.20000000298023224,
					1
				],
				"metallicFactor":0,
				"roughnessFactor":0.550000011920929
			}
		},
		{
			"doubleSided":true,
			"name":"Mat_Strap",
			"pbrMetallicRoughness":{
				"baseColorFactor":[
					0.07999999821186066,
					0.07999999821186066,
					0.10000000149011612,
					1
				],
				"metallicFactor":0,
				"roughnessFactor":0.550000011920929
			}
		},
		{
			"doubleSided":true,
			"name":"Mat_Glove",
			"pbrMetallicRoughness":{
				"baseColorFactor":[
					0.18000000715255737,
					0.14000000059604645,
					0.11999999731779099,
					1
				],
				"metallicFactor":0,
				"roughnessFactor":0.550000011920929
			}
		},
		{
			"doubleSided":true,
			"name":"Mat_Skin",
			"pbrMetallicRoughness":{
				"baseColorFactor":[
					0.550000011920929,
					0.3799999952316284,
					0.3199999928474426,
					1
				],
				"metallicFactor":0,
				"roughnessFactor":0.550000011920929
			}
		}
	],
	"meshes":[
		{
			"name":"Cube",
			"primitives":[
				{
					"attributes":{
						"POSITION":0,
						"NORMAL":1,
						"TEXCOORD_0":2
					},
					"indices":3,
					"material":0
				},
				{
					"attributes":{
						"POSITION":4,
						"NORMAL":5,
						"TEXCOORD_0":6
					},
					"indices":7,
					"material":1
				},
				{
					"attributes":{
						"POSITION":8,
						"NORMAL":9,
						"TEXCOORD_0":10
					},
					"indices":11,
					"material":2
				},
				{
					"attributes":{
						"POSITION":12,
						"NORMAL":13,
						"TEXCOORD_0":14
					},
					"indices":15,
					"material":3
				}
			]
		}
	],
	"accessors":[
		{
			"bufferView":0,
			"componentType":5126,
			"count":144,
			"max":[
				0.33976465463638306,
				0.4599999785423279,
				0.4699779748916626
			],
			"min":[
				-0.16788232326507568,
				0.13444238901138306,
				0.07999999076128006
			],
			"type":"VEC3"
		},
		{
			"bufferView":1,
			"componentType":5126,
			"count":144,
			"type":"VEC3"
		},
		{
			"bufferView":2,
			"componentType":5126,
			"count":144,
			"type":"VEC2"
		},
		{
			"bufferView":3,
			"componentType":5123,
			"count":216,
			"type":"SCALAR"
		},
		{
			"bufferView":4,
			"componentType":5126,
			"count":72,
			"max":[
				0.2874999940395355,
				0.2900000512599945,
				0.3850000500679016
			],
			"min":[
				-0.04999999701976776,
				0.1550000160932541,
				0.08999999612569809
			],
			"type":"VEC3"
		},
		{
			"bufferView":5,
			"componentType":5126,
			"count":72,
			"type":"VEC3"
		},
		{
			"bufferView":6,
			"componentType":5126,
			"count":72,
			"type":"VEC2"
		},
		{
			"bufferView":7,
			"componentType":5123,
			"count":108,
			"type":"SCALAR"
		},
		{
			"bufferView":8,
			"componentType":5126,
			"count":48,
			"max":[
				0.36806511878967285,
				0.37471067905426025,
				0.5508036017417908
			],
			"min":[
				0.11413787305355072,
				0.3052894175052643,
				0.4461539089679718
			],
			"type":"VEC3"
		},
		{
			"bufferView":9,
			"componentType":5126,
			"count":48,
			"type":"VEC3"
		},
		{
			"bufferView":10,
			"componentType":5126,
			"count":48,
			"type":"VEC2"
		},
		{
			"bufferView":11,
			"componentType":5123,
			"count":72,
			"type":"SCALAR"
		},
		{
			"bufferView":12,
			"componentType":5126,
			"count":24,
			"max":[
				0.3174999952316284,
				0.33250004053115845,
				0.44999998807907104
			],
			"min":[
				0.30250000953674316,
				0.30750003457069397,
				0.4300000071525574
			],
			"type":"VEC3"
		},
		{
			"bufferView":13,
			"componentType":5126,
			"count":24,
			"type":"VEC3"
		},
		{
			"bufferView":14,
			"componentType":5126,
			"count":24,
			"type":"VEC2"
		},
		{
			"bufferView":15,
			"componentType":5123,
			"count":36,
			"type":"SCALAR"
		}
	],
	"bufferViews":[
		{
			"buffer":0,
			"byteLength":1728,
			"byteOffset":0,
			"target":34962
		},
		{
			"buffer":0,
			"byteLength":1728,
			"byteOffset":1728,
			"target":34962
		},
		{
			"buffer":0,
			"byteLength":1152,
			"byteOffset":3456,
			"target":34962
		},
		{
			"buffer":0,
			"byteLength":432,
			"byteOffset":4608,
			"target":34963
		},
		{
			"buffer":0,
			"byteLength":864,
			"byteOffset":5040,
			"target":34962
		},
		{
			"buffer":0,
			"byteLength":864,
			"byteOffset":5904,
			"target":34962
		},
		{
			"buffer":0,
			"byteLength":576,
			"byteOffset":6768,
			"target":34962
		},
		{
			"buffer":0,
			"byteLength":216,
			"byteOffset":7344,
			"target":34963
		},
		{
			"buffer":0,
			"byteLength":576,
			"byteOffset":7560,
			"target":34962
		},
		{
			"buffer":0,
			"byteLength":576,
			"byteOffset":8136,
			"target":34962
		},
		{
			"buffer":0,
			"byteLength":384,
			"byteOffset":8712,
			"target":34962
		},
		{
			"buffer":0,
			"byteLength":144,
			"byteOffset":9096,
			"target":34963
		},
		{
			"buffer":0,
			"byteLength":288,
			"byteOffset":9240,
			"target":34962
		},
		{
			"buffer":0,
			"byteLength":288,
			"byteOffset":9528,
			"target":34962
		},
		{
			"buffer":0,
			"byteLength":192,
			"byteOffset":9816,
			"target":34962
		},
		{
			"buffer":0,
			"byteLength":72,
			"byteOffset":10008,
			"target":34963
		}
	],
	"buffers":[
		{
			"byteLength":10080,
			"uri":"fps-arms.bin"
		}
	]
}
