{
	"asset":{
		"generator":"Khronos glTF Blender I/O v5.1.19",
		"version":"2.0"
	},
	"scene":0,
	"scenes":[
		{
			"name":"Scene",
			"nodes":[
				0
			]
		}
	],
	"nodes":[
		{
			"mesh":0,
			"name":"scorpio-ak47"
		}
	],
	"materials":[
		{
			"doubleSided":true,
			"name":"Mat_AK_Metal",
			"pbrMetallicRoughness":{
				"baseColorFactor":[
					0.14000000059604645,
					0.14000000059604645,
					0.1599999964237213,
					1
				],
				"metallicFactor":0.550000011920929,
				"roughnessFactor":0.44999998807907104
			}
		},
		{
			"doubleSided":true,
			"name":"Mat_AK_Worn",
			"pbrMetallicRoughness":{
				"baseColorFactor":[
					0.2199999988079071,
					0.2199999988079071,
					0.23999999463558197,
					1
				],
				"metallicFactor":0.6499999761581421,
				"roughnessFactor":0.3499999940395355
			}
		},
		{
			"doubleSided":true,
			"name":"Mat_AK_Dark",
			"pbrMetallicRoughness":{
				"baseColorFactor":[
					0.07999999821186066,
					0.07999999821186066,
					0.09000000357627869,
					1
				],
				"metallicFactor":0.4000000059604645,
				"roughnessFactor":0.5
			}
		},
		{
			"doubleSided":true,
			"name":"Mat_AK_Wood",
			"pbrMetallicRoughness":{
				"baseColorFactor":[
					0.3199999928474426,
					0.20000000298023224,
					0.10000000149011612,
					1
				],
				"metallicFactor":0,
				"roughnessFactor":0.75
			}
		},
		{
			"doubleSided":true,
			"name":"Mat_AK_Grip",
			"pbrMetallicRoughness":{
				"baseColorFactor":[
					0.41999998688697815,
					0.2199999988079071,
					0.11999999731779099,
					1
				],
				"metallicFactor":0.05000000074505806,
				"roughnessFactor":0.6499999761581421
			}
		}
	],
	"meshes":[
		{
			"name":"Cylinder",
			"primitives":[
				{
					"attributes":{
						"POSITION":0,
						"NORMAL":1,
						"TEXCOORD_0":2
					},
					"indices":3,
					"material":0
				},
				{
					"attributes":{
						"POSITION":4,
						"NORMAL":5,
						"TEXCOORD_0":6
					},
					"indices":7,
					"material":1
				},
				{
					"attributes":{
						"POSITION":8,
						"NORMAL":9,
						"TEXCOORD_0":10
					},
					"indices":11,
					"material":2
				},
				{
					"attributes":{
						"POSITION":12,
						"NORMAL":13,
						"TEXCOORD_0":14
					},
					"indices":15,
					"material":3
				},
				{
					"attributes":{
						"POSITION":16,
						"NORMAL":17,
						"TEXCOORD_0":18
					},
					"indices":19,
					"material":4
				}
			]
		}
	],
	"accessors":[
		{
			"bufferView":0,
			"componentType":5126,
			"count":348,
			"max":[
				0.40631571412086487,
				0.20733606815338135,
				0.09197338670492172
			],
			"min":[
				-0.5299343466758728,
				-0.04480264335870743,
				-0.08754825592041016
			],
			"type":"VEC3"
		},
		{
			"bufferView":1,
			"componentType":5126,
			"count":348,
			"type":"VEC3"
		},
		{
			"bufferView":2,
			"componentType":5126,
			"count":348,
			"type":"VEC2"
		},
		{
			"bufferView":3,
			"componentType":5123,
			"count":552,
			"type":"SCALAR"
		},
		{
			"bufferView":4,
			"componentType":5126,
			"count":96,
			"max":[
				0.4225656986236572,
				0.13501393795013428,
				0.07404841482639313
			],
			"min":[
				-0.09118430316448212,
				-0.031052643433213234,
				-0.06629824638366699
			],
			"type":"VEC3"
		},
		{
			"bufferView":5,
			"componentType":5126,
			"count":96,
			"type":"VEC3"
		},
		{
			"bufferView":6,
			"componentType":5126,
			"count":96,
			"type":"VEC2"
		},
		{
			"bufferView":7,
			"componentType":5123,
			"count":144,
			"type":"SCALAR"
		},
		{
			"bufferView":8,
			"componentType":5126,
			"count":120,
			"max":[
				0.326315701007843,
				0.01644735597074032,
				0.0327017642557621
			],
			"min":[
				-0.11743427813053131,
				-0.0790526419878006,
				-0.01829824410378933
			],
			"type":"VEC3"
		},
		{
			"bufferView":9,
			"componentType":5126,
			"count":120,
			"type":"VEC3"
		},
		{
			"bufferView":10,
			"componentType":5126,
			"count":120,
			"type":"VEC2"
		},
		{
			"bufferView":11,
			"componentType":5123,
			"count":192,
			"type":"SCALAR"
		},
		{
			"bufferView":12,
			"componentType":5126,
			"count":96,
			"max":[
				0.1663157045841217,
				0.0760970413684845,
				0.05140555649995804
			],
			"min":[
				-0.4836843013763428,
				-0.03355264291167259,
				-0.045048244297504425
			],
			"type":"VEC3"
		},
		{
			"bufferView":13,
			"componentType":5126,
			"count":96,
			"type":"VEC3"
		},
		{
			"bufferView":14,
			"componentType":5126,
			"count":96,
			"type":"VEC2"
		},
		{
			"bufferView":15,
			"componentType":5123,
			"count":144,
			"type":"SCALAR"
		},
		{
			"bufferView":16,
			"componentType":5126,
			"count":24,
			"max":[
				-0.12783758342266083,
				0.07036963105201721,
				0.0815369114279747
			],
			"min":[
				-0.15953098237514496,
				0.00752507708966732,
				0.035866595804691315
			],
			"type":"VEC3"
		},
		{
			"bufferView":17,
			"componentType":5126,
			"count":24,
			"type":"VEC3"
		},
		{
			"bufferView":18,
			"componentType":5126,
			"count":24,
			"type":"VEC2"
		},
		{
			"bufferView":19,
			"componentType":5123,
			"count":36,
			"type":"SCALAR"
		}
	],
	"bufferViews":[
		{
			"buffer":0,
			"byteLength":4176,
			"byteOffset":0,
			"target":34962
		},
		{
			"buffer":0,
			"byteLength":4176,
			"byteOffset":4176,
			"target":34962
		},
		{
			"buffer":0,
			"byteLength":2784,
			"byteOffset":8352,
			"target":34962
		},
		{
			"buffer":0,
			"byteLength":1104,
			"byteOffset":11136,
			"target":34963
		},
		{
			"buffer":0,
			"byteLength":1152,
			"byteOffset":12240,
			"target":34962
		},
		{
			"buffer":0,
			"byteLength":1152,
			"byteOffset":13392,
			"target":34962
		},
		{
			"buffer":0,
			"byteLength":768,
			"byteOffset":14544,
			"target":34962
		},
		{
			"buffer":0,
			"byteLength":288,
			"byteOffset":15312,
			"target":34963
		},
		{
			"buffer":0,
			"byteLength":1440,
			"byteOffset":15600,
			"target":34962
		},
		{
			"buffer":0,
			"byteLength":1440,
			"byteOffset":17040,
			"target":34962
		},
		{
			"buffer":0,
			"byteLength":960,
			"byteOffset":18480,
			"target":34962
		},
		{
			"buffer":0,
			"byteLength":384,
			"byteOffset":19440,
			"target":34963
		},
		{
			"buffer":0,
			"byteLength":1152,
			"byteOffset":19824,
			"target":34962
		},
		{
			"buffer":0,
			"byteLength":1152,
			"byteOffset":20976,
			"target":34962
		},
		{
			"buffer":0,
			"byteLength":768,
			"byteOffset":22128,
			"target":34962
		},
		{
			"buffer":0,
			"byteLength":288,
			"byteOffset":22896,
			"target":34963
		},
		{
			"buffer":0,
			"byteLength":288,
			"byteOffset":23184,
			"target":34962
		},
		{
			"buffer":0,
			"byteLength":288,
			"byteOffset":23472,
			"target":34962
		},
		{
			"buffer":0,
			"byteLength":192,
			"byteOffset":23760,
			"target":34962
		},
		{
			"buffer":0,
			"byteLength":72,
			"byteOffset":23952,
			"target":34963
		}
	],
	"buffers":[
		{
			"byteLength":24024,
			"uri":"scorpio-blaster.bin"
		}
	]
}
