{
	"asset":{
		"generator":"Khronos glTF Blender I/O v5.1.19",
		"version":"2.0"
	},
	"extensionsUsed":[
		"KHR_materials_emissive_strength"
	],
	"scene":0,
	"scenes":[
		{
			"name":"Scene",
			"nodes":[
				1
			]
		}
	],
	"nodes":[
		{
			"mesh":0,
			"name":"DroneMesh"
		},
		{
			"children":[
				0
			],
			"name":"root"
		}
	],
	"materials":[
		{
			"doubleSided":true,
			"name":"Mat_DroneMetal",
			"pbrMetallicRoughness":{
				"baseColorFactor":[
					0.18000000715255737,
					0.18000000715255737,
					0.2199999988079071,
					1
				],
				"metallicFactor":0.5,
				"roughnessFactor":0.5
			}
		},
		{
			"doubleSided":true,
			"name":"Mat_DarkJoint",
			"pbrMetallicRoughness":{
				"baseColorFactor":[
					0.07999999821186066,
					0.07999999821186066,
					0.10000000149011612,
					1
				],
				"metallicFactor":0.20000000298023224,
				"roughnessFactor":0.5
			}
		},
		{
			"doubleSided":true,
			"name":"Mat_RedArmor",
			"pbrMetallicRoughness":{
				"baseColorFactor":[
					0.550000011920929,
					0.07999999821186066,
					0.10000000149011612,
					1
				],
				"metallicFactor":0.20000000298023224,
				"roughnessFactor":0.5
			}
		},
		{
			"doubleSided":true,
			"emissiveFactor":[
				1,
				0.4000000059604645,
				0
			],
			"extensions":{
				"KHR_materials_emissive_strength":{
					"emissiveStrength":3
				}
			},
			"name":"Mat_OrangeCore",
			"pbrMetallicRoughness":{
				"baseColorFactor":[
					1,
					0.3499999940395355,
					0.05000000074505806,
					1
				],
				"metallicFactor":0.20000000298023224,
				"roughnessFactor":0.5
			}
		}
	],
	"meshes":[
		{
			"name":"Cube.011",
			"primitives":[
				{
					"attributes":{
						"POSITION":0,
						"NORMAL":1,
						"TEXCOORD_0":2
					},
					"indices":3,
					"material":0
				},
				{
					"attributes":{
						"POSITION":4,
						"NORMAL":5,
						"TEXCOORD_0":6
					},
					"indices":7,
					"material":1
				},
				{
					"attributes":{
						"POSITION":8,
						"NORMAL":9,
						"TEXCOORD_0":10
					},
					"indices":11,
					"material":2
				},
				{
					"attributes":{
						"POSITION":12,
						"NORMAL":13,
						"TEXCOORD_0":14
					},
					"indices":15,
					"material":3
				}
			]
		}
	],
	"accessors":[
		{
			"bufferView":0,
			"componentType":5126,
			"count":168,
			"max":[
				0.4150000214576721,
				0.09499999135732651,
				0.014999999664723873
			],
			"min":[
				-0.054999999701976776,
				-0.2849999964237213,
				-1.412500023841858
			],
			"type":"VEC3"
		},
		{
			"bufferView":1,
			"componentType":5126,
			"count":168,
			"type":"VEC3"
		},
		{
			"bufferView":2,
			"componentType":5126,
			"count":168,
			"type":"VEC2"
		},
		{
			"bufferView":3,
			"componentType":5123,
			"count":252,
			"type":"SCALAR"
		},
		{
			"bufferView":4,
			"componentType":5126,
			"count":96,
			"max":[
				0.5849999785423279,
				0.02500000037252903,
				-0.10249999910593033
			],
			"min":[
				-0.22499999403953552,
				-0.07500000298023224,
				-0.8374999761581421
			],
			"type":"VEC3"
		},
		{
			"bufferView":5,
			"componentType":5126,
			"count":96,
			"type":"VEC3"
		},
		{
			"bufferView":6,
			"componentType":5126,
			"count":96,
			"type":"VEC2"
		},
		{
			"bufferView":7,
			"componentType":5123,
			"count":144,
			"type":"SCALAR"
		},
		{
			"bufferView":8,
			"componentType":5126,
			"count":120,
			"max":[
				0.5350000262260437,
				0.12000000476837158,
				-0.6775000095367432
			],
			"min":[
				-0.17499998211860657,
				-0.12000000476837158,
				-1.2600001096725464
			],
			"type":"VEC3"
		},
		{
			"bufferView":9,
			"componentType":5126,
			"count":120,
			"type":"VEC3"
		},
		{
			"bufferView":10,
			"componentType":5126,
			"count":120,
			"type":"VEC2"
		},
		{
			"bufferView":11,
			"componentType":5123,
			"count":180,
			"type":"SCALAR"
		},
		{
			"bufferView":12,
			"componentType":5126,
			"count":264,
			"max":[
				0.33000001311302185,
				0.25,
				-0.6700000166893005
			],
			"min":[
				0.030000004917383194,
				-0.39000001549720764,
				-1.2699999809265137
			],
			"type":"VEC3"
		},
		{
			"bufferView":13,
			"componentType":5126,
			"count":264,
			"type":"VEC3"
		},
		{
			"bufferView":14,
			"componentType":5126,
			"count":264,
			"type":"VEC2"
		},
		{
			"bufferView":15,
			"componentType":5123,
			"count":480,
			"type":"SCALAR"
		}
	],
	"bufferViews":[
		{
			"buffer":0,
			"byteLength":2016,
			"byteOffset":0,
			"target":34962
		},
		{
			"buffer":0,
			"byteLength":2016,
			"byteOffset":2016,
			"target":34962
		},
		{
			"buffer":0,
			"byteLength":1344,
			"byteOffset":4032,
			"target":34962
		},
		{
			"buffer":0,
			"byteLength":504,
			"byteOffset":5376,
			"target":34963
		},
		{
			"buffer":0,
			"byteLength":1152,
			"byteOffset":5880,
			"target":34962
		},
		{
			"buffer":0,
			"byteLength":1152,
			"byteOffset":7032,
			"target":34962
		},
		{
			"buffer":0,
			"byteLength":768,
			"byteOffset":8184,
			"target":34962
		},
		{
			"buffer":0,
			"byteLength":288,
			"byteOffset":8952,
			"target":34963
		},
		{
			"buffer":0,
			"byteLength":1440,
			"byteOffset":9240,
			"target":34962
		},
		{
			"buffer":0,
			"byteLength":1440,
			"byteOffset":10680,
			"target":34962
		},
		{
			"buffer":0,
			"byteLength":960,
			"byteOffset":12120,
			"target":34962
		},
		{
			"buffer":0,
			"byteLength":360,
			"byteOffset":13080,
			"target":34963
		},
		{
			"buffer":0,
			"byteLength":3168,
			"byteOffset":13440,
			"target":34962
		},
		{
			"buffer":0,
			"byteLength":3168,
			"byteOffset":16608,
			"target":34962
		},
		{
			"buffer":0,
			"byteLength":2112,
			"byteOffset":19776,
			"target":34962
		},
		{
			"buffer":0,
			"byteLength":960,
			"byteOffset":21888,
			"target":34963
		}
	],
	"buffers":[
		{
			"byteLength":22848,
			"uri":"scorpio-drone.bin"
		}
	]
}
